<svg width="90" height="66" viewBox="0 0 90 66" fill="none" xmlns="http://www.w3.org/2000/svg">
	<path d="M89.27 0.906092C88.8169 0.632652 88.2544 0.620932 87.7895 0.874842L69.8055 10.5936C69.454 10.7811 69.1922 11.1054 69.0789 11.4882C68.9657 11.871 69.0086 12.2851 69.2039 12.6327C69.2196 12.66 69.454 13.0936 69.8446 13.8085C64.0594 11.6366 54.8996 8.54677 53.6026 8.10927C53.0049 7.90615 52.3018 7.68739 51.5284 7.64833C50.751 7.60927 50.0479 7.74599 49.4268 7.86708L35.8018 10.5429C35.3487 10.6327 34.6651 10.7694 34.0752 11.2851C33.6689 11.6405 33.4502 12.0546 33.2861 12.3632C33.2822 12.371 33.2744 12.3827 33.2705 12.3905C29.04 12.5975 24.7783 12.8436 20.5405 13.1132C20.6967 12.8241 20.7944 12.6483 20.8022 12.6327C20.9936 12.2811 21.0366 11.871 20.9272 11.4882C20.8139 11.1054 20.5522 10.7851 20.2006 10.5937L2.21665 0.874877C1.75181 0.620967 1.18935 0.632687 0.736146 0.906127C0.283026 1.17566 0.00567627 1.66394 0.00567627 2.19523V37.9842C0.00567627 38.8123 0.677556 39.4842 1.50568 39.4842H6.31038C6.95882 39.4842 7.53308 39.0702 7.73618 38.453C7.82993 38.164 7.96274 37.8202 8.11899 37.4296C8.63071 37.7734 9.15809 38.0781 9.67369 38.3671L14.2167 40.9218C13.9042 41.2304 13.6073 41.5312 13.3534 41.8242C12.2714 43.0547 11.6542 44.4336 11.5722 45.8125C11.4628 47.6094 12.3183 49.3125 13.7519 50.1484C14.416 50.5351 15.1972 50.7304 16.0175 50.7304C16.537 50.7304 17.0761 50.6445 17.6113 50.4882C17.584 50.664 17.5644 50.8437 17.5527 51.0195C17.4316 53.039 18.3847 54.9492 19.9863 55.8828C20.7285 56.3163 21.5996 56.5312 22.5215 56.5312C23.2246 56.5312 23.9512 56.4023 24.6738 56.1523C24.6582 56.2812 24.6387 56.414 24.6308 56.5429C24.5019 58.6679 25.5058 60.6757 27.1894 61.6601C27.9668 62.1132 28.8847 62.3398 29.8535 62.3398C30.8106 62.3398 31.8223 62.1171 32.7988 61.6757C32.8262 61.664 32.8535 61.6484 32.8809 61.6328C33.0215 62.9531 33.7324 64.1367 34.8145 64.7695C35.4199 65.1249 36.1153 65.3007 36.8497 65.3007C37.5567 65.3007 38.2989 65.1367 39.0294 64.8046C40.5841 64.0976 41.9317 62.9257 43.0724 61.8866C43.7521 61.2655 44.7169 60.3827 45.4865 59.3241C47.6232 60.121 53.7638 62.1757 55.8265 62.1757C56.0023 62.1757 56.1468 62.1601 56.2562 62.1289C57.8734 61.6718 60.1273 60.332 61.4906 58.4414C62.5883 58.8359 63.4672 59.0859 63.9633 59.1171C64.1742 59.1328 64.4086 59.1445 64.6586 59.1445C65.1742 59.1445 65.7602 59.082 66.3422 58.8085C67.936 58.0585 68.3891 56.2577 68.6078 55.3905C68.6117 55.3827 68.6781 55.078 68.7289 54.6366C69.4007 54.8827 69.9359 55.0351 70.2641 55.0546C70.4516 55.0702 70.6664 55.0819 70.9008 55.0819C71.4672 55.0819 72.143 54.996 72.7992 54.5897C74.1937 53.7304 74.6508 52.0117 74.9672 50.4687C74.9711 50.4491 75.1547 49.4999 75.1547 48.4256C75.85 48.5546 76.5609 48.6444 77.2875 48.6444C77.8539 48.6444 78.4281 48.5975 79.0102 48.5038C81.2368 48.1288 82.8461 46.7304 83.3227 44.7616C83.8578 42.5507 82.8617 40.0546 80.8422 38.5546C80.643 38.4061 80.4359 38.2655 80.2328 38.1171C80.7914 37.8905 81.3305 37.6249 81.8539 37.3358C82.0297 37.7655 82.1703 38.1405 82.2758 38.453C82.4789 39.0702 83.0531 39.4842 83.7016 39.4842H88.5063C89.3344 39.4842 90.0063 38.8123 90.0063 37.9842L90.0024 2.19523C90.0024 1.66789 89.725 1.17963 89.2719 0.906129L89.27 0.906092ZM5.25801 36.4841H3.00021V4.71109L17.4452 12.5158C17.2343 12.9064 16.9687 13.3908 16.6874 13.9142C16.6093 14.0236 16.539 14.1408 16.4921 14.2736C13.4609 19.883 7.21479 31.5936 5.26209 36.4846L5.25801 36.4841ZM15.2541 47.5621C14.8088 47.3043 14.5158 46.6441 14.5549 45.9957C14.5979 45.3004 14.9651 44.523 15.594 43.8082C17.1565 42.0348 19.9729 39.8629 22.3323 39.152C22.5784 39.0778 22.9495 38.9879 23.301 38.9879C23.5354 38.9879 23.7581 39.027 23.93 39.1364C24.176 39.2926 24.3596 39.5817 24.3987 39.8708C24.6018 41.402 22.2659 43.5388 21.1409 44.5622C19.9807 45.6208 18.6253 46.8044 17.2229 47.445C16.4729 47.7848 15.7151 47.8317 15.2502 47.5582L15.2541 47.5621ZM21.4924 53.2965C20.8791 52.9371 20.4846 52.0777 20.5393 51.2067C20.6096 50.0778 21.2776 49.0973 21.8284 48.4723C23.6956 46.3551 27.0628 43.7614 29.8909 42.9059C30.2503 42.7965 30.6878 42.7028 31.1018 42.7028C31.4299 42.7028 31.7424 42.7614 31.9924 42.9215C32.3518 43.152 32.6096 43.5543 32.6643 43.9762C32.9221 45.9215 30.0979 48.4996 28.7424 49.7379C27.3596 50.9996 25.7463 52.4098 24.0588 53.1754C23.3049 53.5153 22.2346 53.7301 21.4924 53.2965ZM31.5514 58.9488C30.7194 59.3277 29.528 59.5582 28.6959 59.0738C28.0006 58.6675 27.5592 57.7066 27.6178 56.73C27.692 55.4878 28.4264 54.4097 29.028 53.73C31.0436 51.4448 34.6764 48.648 37.7272 47.7261C38.1217 47.6089 38.6022 47.4995 39.0592 47.4995C39.4264 47.4995 39.7858 47.5698 40.0748 47.7534C40.4889 48.0152 40.7818 48.48 40.8483 48.9643C41.1295 51.1088 38.0749 53.9018 36.6061 55.2416C35.1178 56.601 33.3794 58.1244 31.5513 58.9525L31.5514 58.9488ZM41.0475 59.6754C40.0788 60.5621 38.9459 61.5504 37.7858 62.0777C37.2233 62.3355 36.6491 62.3745 36.3249 62.1831C36.0202 62.0034 35.8171 61.5347 35.8484 61.0659C35.8796 60.5269 36.1726 59.9175 36.6726 59.3511C37.9773 57.8706 40.321 56.062 42.282 55.4683C42.5671 55.3824 42.8249 55.3394 43.032 55.3394C43.2078 55.3394 43.3484 55.3707 43.446 55.4332C43.5984 55.5308 43.7156 55.7144 43.739 55.8941C43.8953 57.0738 41.9031 58.898 41.0515 59.6753L41.0475 59.6754ZM80.4025 44.0624C80.1603 45.0702 79.2384 45.4296 78.5119 45.5507C75.2424 46.0975 72.0197 44.2889 69.1799 42.6912C65.9768 40.8904 62.9221 38.789 60.1057 36.4452C59.469 35.9139 58.5237 35.9998 57.9924 36.6405C57.4612 37.2772 57.5471 38.2225 58.1877 38.7538C61.1447 41.2147 64.3479 43.4179 67.7111 45.3085C69.0236 46.0467 70.4728 46.8593 72.0353 47.4999C72.0588 47.5467 72.0705 47.6014 72.0978 47.6483C72.1799 48.1327 72.1213 49.4256 72.0275 49.8749C71.7658 51.1483 71.4923 51.8827 71.2189 52.0507C71.1095 52.121 70.6877 52.0898 70.4728 52.0741C68.4728 51.8398 57.0198 45.5624 55.6098 43.2577C55.1762 42.5507 54.2543 42.3281 53.5473 42.7617C52.8403 43.1952 52.6176 44.1172 53.0512 44.8242C54.5043 47.1992 61.0707 51.125 65.7542 53.3633C65.7933 53.7343 65.7542 54.4297 65.6956 54.6719C65.6175 54.9922 65.3714 55.9609 65.0628 56.1054C64.8949 56.1836 64.4496 56.1523 64.1566 56.1367C62.4222 56.0078 51.4336 50.957 49.9616 49.1094C49.446 48.461 48.5007 48.3516 47.8522 48.8711C47.2037 49.3867 47.0983 50.332 47.6139 50.9805C48.9069 52.6055 54.2545 55.4336 58.5709 57.293C57.7193 58.1797 56.5318 58.9063 55.5982 59.211C54.4029 59.086 48.9888 57.4883 46.6959 56.6055C46.7467 56.2501 46.7545 55.8829 46.7076 55.5117C46.567 54.457 45.9498 53.4883 45.0553 52.9179C44.6022 52.6289 43.9264 52.3593 43.0084 52.3632C43.6334 51.1796 44.0006 49.9023 43.8248 48.582C43.6451 47.2226 42.8483 45.9726 41.692 45.2382C40.399 44.414 38.7779 44.289 36.8639 44.8671C36.4303 44.9999 35.9928 45.164 35.5553 45.3437C35.6764 44.7734 35.7194 44.1914 35.6413 43.5976C35.4694 42.3007 34.7077 41.1093 33.6101 40.4062C32.7663 39.8671 31.282 39.3671 29.0242 40.0507C28.4773 40.2148 27.9226 40.4413 27.368 40.6913C27.4227 40.3007 27.4305 39.9023 27.3758 39.496C27.2234 38.3319 26.5398 37.2578 25.5477 36.625C24.7899 36.1406 23.4696 35.6914 21.4696 36.2968C19.8485 36.789 18.1571 37.7616 16.6532 38.871L11.1415 35.7694C10.4891 35.4022 9.88758 35.0429 9.36418 34.6288C11.8525 29.328 16.2978 20.9808 18.8525 16.2418C23.0439 15.9645 27.2705 15.7184 31.4775 15.5035C30.6025 16.9097 29.665 18.2809 28.6572 19.5895C27.5947 20.9684 26.1416 22.859 26.5556 25.1325C26.9931 27.5347 29.329 28.9215 31.4072 29.0543C31.5478 29.0622 31.6845 29.0661 31.8252 29.0661C33.6885 29.0661 35.3955 28.2965 36.7002 27.6052C39.0674 26.3552 41.0205 24.8943 42.5596 23.2575C43.3252 23.2692 53.7316 23.484 58.3526 26.2302C58.7276 26.4528 59.0986 26.6911 59.4659 26.9255C62.9034 29.1521 66.2667 31.6599 69.5169 34.0896L70.6263 34.9177C72.0365 35.9685 73.4701 36.9802 74.9075 37.9958C76.2981 38.9802 77.6847 39.9606 79.048 40.9724C80.0988 41.7536 80.6535 43.0271 80.4035 44.0701L80.4025 44.0624ZM77.1759 35.9218C76.9962 35.7928 76.8165 35.6639 76.6369 35.535C75.2228 34.535 73.8048 33.535 72.418 32.4998L71.3087 31.6717C68.0157 29.2147 64.6134 26.6756 61.0937 24.3944C60.6952 24.1366 60.2929 23.8827 59.8827 23.6366C55.7421 21.1757 48.2028 20.4999 44.5778 20.3124C44.6324 19.7694 44.3942 19.2186 43.9059 18.9022C43.2106 18.4569 42.2809 18.6522 41.8317 19.3475C40.4411 21.4959 38.2419 23.3787 35.2926 24.9373C34.1754 25.5311 32.8551 26.117 31.5934 26.0428C30.7067 25.9881 29.6559 25.41 29.5036 24.574C29.3278 23.6131 30.234 22.4373 31.0309 21.3982C32.8747 19.0037 34.5231 16.4334 35.9371 13.7537C35.9722 13.6912 35.9996 13.6209 36.0386 13.5584C36.1285 13.5311 36.2847 13.4998 36.3746 13.4803L49.9996 10.8045C50.4918 10.7068 50.9605 10.617 51.359 10.6365C51.7535 10.6599 52.2066 10.8006 52.6363 10.9451C58.3902 12.8826 68.6323 16.4178 72.0503 17.8982C74.648 22.742 78.4019 29.8552 80.6206 34.5742C79.5503 35.1953 78.3784 35.6484 77.1714 35.914L77.1759 35.9218ZM87.0001 36.4843H84.7423C82.5509 31.0038 74.965 16.9413 72.5583 12.5153L87.0033 4.71055V36.4836L87.0001 36.4843Z" fill="black" />
</svg>
