<svg width="90" height="90" viewBox="0 0 90 90" fill="none" xmlns="http://www.w3.org/2000/svg">
	<path d="M44.363 64.0619C44.5388 64.2337 44.7693 64.3197 44.9997 64.3197C45.2302 64.3197 45.4568 64.2337 45.6365 64.0619L61.9725 48.1319C66.2577 43.9522 66.4608 36.9439 62.4256 32.5069C60.4568 30.3428 57.7928 29.1085 54.9178 29.0225C54.8123 29.0185 54.7068 29.0185 54.6014 29.0185C51.8514 29.0185 49.2498 30.0849 47.2459 32.0419L45.0037 34.2294L42.7615 32.0419C40.7537 30.0849 38.1599 29.0185 35.406 29.0185C35.3005 29.0185 35.1911 29.0185 35.0857 29.0225C32.2146 29.1084 29.5466 30.3467 27.5818 32.5069C23.5466 36.9405 23.7498 43.9519 28.0349 48.1319L44.3709 64.0619H44.363ZM29.797 34.5309C31.2111 32.9762 33.1212 32.0856 35.172 32.0231C35.2501 32.0191 35.3244 32.0191 35.4025 32.0191C37.3595 32.0191 39.2267 32.7887 40.6642 34.191L42.9064 36.3785L45.0002 38.4215L47.094 36.3785L49.3362 34.191C50.7698 32.7926 52.6409 32.0191 54.5979 32.0191C54.6721 32.0191 54.7502 32.0191 54.8245 32.0231C56.8753 32.0856 58.7854 32.9762 60.2034 34.5309C63.1643 37.7848 63.0159 42.9254 59.8752 45.9879L45.0002 60.4959L30.1252 45.9879C26.9846 42.9254 26.836 37.7848 29.797 34.5309ZM88 5.37486H81.3633C80.5352 5.37486 79.8633 6.04674 79.8633 6.87486V7.2733C78.6602 7.26158 77.461 7.24595 77.0977 7.23033L49.3637 0.105328C48.7426 -0.0431123 48.0903 -0.0352923 47.4184 0.152203L22.5204 8.0194C20.5243 8.56237 19.3173 10.6327 19.829 12.6366C20.2665 14.3514 21.7899 15.4999 23.5048 15.4999C23.704 15.4999 23.9033 15.4843 24.1064 15.453L26.247 15.1171C27.6181 16.871 29.7236 17.914 31.9618 17.914C32.1962 17.914 32.4383 17.9023 32.6766 17.8788L44.5246 16.7069C44.7473 18.496 45.8644 20.1405 47.6223 20.8905L59.8293 26.1053C61.1691 26.6796 62.5988 26.9647 64.0324 26.9647C65.1769 26.9647 66.3215 26.7811 67.4269 26.41L76.9894 23.2108C77.3996 23.0741 77.8254 23.0038 78.2589 23.0038H79.8683V23.0233C79.8683 23.8514 80.5402 24.5233 81.3683 24.5233H88.005C88.8331 24.5233 89.505 23.8514 89.505 23.0233L89.5011 6.87532C89.5011 6.0472 88.8292 5.37532 88.0011 5.37532L88 5.37486ZM32.379 14.8905C31.6056 14.9686 30.8438 14.8201 30.1642 14.4998L45.3282 12.1287C45.4688 12.1053 45.6173 12.1209 45.7501 12.1756L46.1017 12.3123C45.7032 12.6873 45.3712 13.1326 45.1017 13.6326L32.379 14.8905ZM78.254 20.0038C77.4962 20.0038 76.7501 20.1248 76.0313 20.367L66.4688 23.5662C64.6797 24.1678 62.7383 24.0858 61 23.3436L48.793 18.1288C47.6953 17.66 47.1641 16.3788 47.6094 15.2694C48.0625 14.1444 49.3477 13.5897 50.4688 14.035L51.4727 14.4295L57.7969 16.9217C58.5704 17.2264 59.4375 16.8475 59.7422 16.078C60.0469 15.3084 59.668 14.4374 58.8985 14.1327L51.5704 11.246L46.8477 9.38656C46.2188 9.14047 45.5352 9.06234 44.8633 9.16781L23.6363 12.4881C23.23 12.5545 22.8355 12.2967 22.73 11.8904C22.6206 11.4686 22.8785 11.0272 23.3589 10.8944L48.2569 3.02716C48.3897 2.992 48.5265 2.992 48.6358 3.01544L76.4908 10.1716C76.6744 10.2146 76.8229 10.2498 79.858 10.2732V19.9998H78.2486L78.254 20.0038ZM86.5001 21.5194H82.8634V8.37436H86.5001V21.5194ZM65.8981 74.5504L63.7614 74.8824C62.2497 72.941 59.8278 71.8746 57.3239 72.1207L45.4759 73.2926C45.2533 71.5035 44.1361 69.859 42.3782 69.109L30.1712 63.8942C27.7571 62.863 25.0618 62.7536 22.5735 63.5856L13.011 66.7848C12.6009 66.9215 12.1751 66.9918 11.7415 66.9918H10.1321V66.9723C10.1321 66.1442 9.46025 65.4723 8.63212 65.4723H1.99542C1.1673 65.4723 0.495422 66.1442 0.495422 66.9723V83.1173C0.495422 83.9454 1.1673 84.6173 1.99542 84.6173H8.63212C9.46025 84.6173 10.1321 83.9454 10.1321 83.1173V82.7189C11.3352 82.7306 12.5344 82.7462 12.8977 82.7618L40.6317 89.8868C40.9169 89.9571 41.2099 89.9884 41.5067 89.9884C41.8583 89.9884 42.2138 89.9415 42.577 89.8399L67.475 81.9727C69.4711 81.4298 70.6781 79.3594 70.1664 77.3555C69.6781 75.4453 67.8422 74.2344 65.893 74.5391L65.8981 74.5504ZM57.6208 75.1089C58.3943 75.0347 59.156 75.1832 59.8317 75.4996L44.6677 77.8707C44.5271 77.8941 44.3826 77.8746 44.2498 77.8238L43.906 77.6871C44.3044 77.3121 44.6443 76.8668 44.9138 76.3629L57.6208 75.1089ZM7.13682 81.6245H3.50012V68.4795H7.13682V81.6245ZM66.6368 79.105L41.7388 86.9722C41.606 87.0074 41.4693 87.0113 41.3599 86.984L13.5049 79.8278C13.3213 79.7848 13.1729 79.7496 10.1377 79.7262V69.9996H11.7471C12.5049 69.9996 13.251 69.8785 13.9698 69.6363L23.5323 66.4371C25.3214 65.8395 27.2628 65.9176 29.0011 66.6598L41.2081 71.8746C42.3058 72.3433 42.837 73.6246 42.3917 74.734C41.9425 75.859 40.6573 76.4098 39.5323 75.9684L38.5284 75.5739L32.2042 73.0817C31.4308 72.777 30.5636 73.1559 30.2589 73.9254C29.9542 74.6949 30.3331 75.566 31.1027 75.8707L38.4308 78.7574L43.1574 80.6168C43.7863 80.8629 44.4699 80.941 45.1379 80.8356L66.3649 77.5153C66.775 77.4449 67.1656 77.7067 67.2711 78.1129C67.3805 78.5348 67.1227 78.9762 66.6422 79.109L66.6368 79.105ZM80.5588 45.671C80.5588 46.4992 79.8869 47.171 79.0588 47.171H72.0393C71.2112 47.171 70.5393 46.4992 70.5393 45.671C70.5393 44.8429 71.2112 44.171 72.0393 44.171H79.0588C79.8869 44.171 80.5588 44.8429 80.5588 45.671ZM69.3438 39.9757C68.9844 39.2297 69.3009 38.3312 70.0469 37.9757L76.375 34.9366C77.1211 34.5773 78.0195 34.8937 78.375 35.6398C78.7344 36.3859 78.418 37.2843 77.6719 37.6398L71.3438 40.6789C71.1329 40.7804 70.9141 40.8273 70.6954 40.8273C70.1368 40.8273 69.6016 40.5148 69.3438 39.9757ZM78.375 55.7027C78.1172 56.2418 77.5821 56.5543 77.0234 56.5543C76.8047 56.5543 76.5859 56.5074 76.375 56.4059L70.0469 53.3668C69.3008 53.0074 68.9844 52.1129 69.3438 51.3668C69.7031 50.6207 70.5977 50.3043 71.3438 50.6636L77.6719 53.7027C78.4179 54.0621 78.7344 54.9566 78.375 55.7027ZM9.44102 45.6717C9.44102 44.8436 10.1129 44.1717 10.941 44.1717H17.9605C18.7886 44.1717 19.4605 44.8436 19.4605 45.6717C19.4605 46.4999 18.7886 47.1717 17.9605 47.1717H10.941C10.1129 47.1717 9.44102 46.4999 9.44102 45.6717ZM11.6246 35.6407C11.984 34.8947 12.8785 34.5782 13.6246 34.9376L19.9527 37.9767C20.6988 38.3361 21.0152 39.2306 20.6558 39.9767C20.398 40.5158 19.8629 40.8283 19.3042 40.8283C19.0855 40.8283 18.8667 40.7814 18.6558 40.6798L12.3277 37.6407C11.5816 37.2814 11.2652 36.3868 11.6246 35.6407ZM20.6558 51.3637C21.0152 52.1098 20.6988 53.0082 19.9527 53.3637L13.6246 56.4028C13.4137 56.5044 13.1949 56.5513 12.9762 56.5513C12.4176 56.5513 11.8824 56.2388 11.6246 55.6997C11.2652 54.9536 11.5816 54.0552 12.3277 53.6997L18.6558 50.6606C19.4019 50.3012 20.2964 50.6177 20.6558 51.3637Z" fill="black" />
</svg>
