<svg width="90" height="72" viewBox="0 0 90 72" fill="none" xmlns="http://www.w3.org/2000/svg">
	<path d="M82.84 63.0005V28.7705H83.6799C86.7893 28.7705 89.3205 26.2393 89.3205 23.1299V6.12986C89.3205 3.02046 86.7893 0.489258 83.6799 0.489258H48.4609C45.3515 0.489258 42.8203 3.02046 42.8203 6.12986V11.9893H11.6603C9.17976 11.9893 7.16026 14.0088 7.16026 16.501V63.001H6.10352e-05V65.1416C6.10352e-05 68.6611 2.42976 71.5127 5.42976 71.5127H84.5708C87.5708 71.5127 90.0005 68.6611 90.0005 65.1416V63.001L82.84 63.0005ZM45.82 6.12946C45.82 4.66856 46.9997 3.48886 48.4606 3.48886H83.6796C85.1288 3.48886 86.3202 4.66856 86.3202 6.12946V23.1295C86.3202 24.5904 85.1288 25.7701 83.6796 25.7701H56.7106L55.9294 26.3404L51.1013 29.8013L51.1521 29.6294L52.2732 25.8989L48.3748 25.77C46.9646 25.7309 45.824 24.5395 45.824 23.1294V6.12938L45.82 6.12946ZM48.2809 28.7705L47.4528 31.54C47.2614 32.1689 47.3747 32.8408 47.7731 33.3681C48.1637 33.8876 48.7848 34.2079 49.445 34.2079C49.8747 34.2079 50.2966 34.0673 50.6442 33.8173L57.6833 28.7665H73.8313V57.4965L16.1713 57.5004V21.3524H42.8193V23.1336C42.8193 26.1844 45.249 28.6844 48.2802 28.7742L48.2809 28.7705ZM10.1599 16.5005C10.1599 15.6723 10.8318 14.9888 11.6599 14.9888H42.8199V18.3482H13.1719V60.4962H76.8319V28.7662H79.8436V62.9962L10.1596 63.0001L10.1599 16.5005ZM84.5699 68.5125H5.42892C4.32732 68.5125 3.37032 67.4344 3.07732 66.0008H86.9173C86.6283 67.4305 85.6673 68.5125 84.5657 68.5125H84.5699ZM34.4409 25.6605C29.3823 25.6605 25.269 29.8988 25.269 35.1214C25.269 37.723 26.2573 40.4808 27.8198 42.6097C25.9917 42.9378 23.6596 43.6683 21.9917 45.9378C20.9605 47.3284 19.6636 49.4261 20.1636 51.5784C20.4136 52.637 21.105 53.5393 22.0034 54.0003C22.4253 54.219 22.894 54.3284 23.3745 54.3284H45.5225C45.9913 54.3284 46.4639 54.219 46.8819 54.0003C47.7921 53.5393 48.4717 52.6409 48.7217 51.5784C49.2217 49.43 47.9209 47.3284 46.8936 45.9378C45.2217 43.6683 42.8936 42.9378 41.0655 42.6097C42.6358 40.4808 43.6163 37.7191 43.6163 35.1214C43.6163 29.9026 39.5069 25.6605 34.4444 25.6605H34.4409ZM44.4799 47.7305C46.6987 50.7305 45.519 51.3321 45.519 51.3321H23.371C23.371 51.3321 22.1913 50.7305 24.4022 47.7305C26.621 44.7188 30.871 45.8711 31.7616 44.6407C32.3515 43.8321 32.2616 43.4688 32.1405 42.6993C29.871 41.2305 28.2694 37.8282 28.2694 35.1212C28.2694 31.5509 31.0311 28.6603 34.4413 28.6603C37.8515 28.6603 40.6132 31.5509 40.6132 35.1212C40.6132 37.8321 39.0116 41.2306 36.7421 42.6993C36.621 43.4688 36.5429 43.8282 37.1328 44.6407C38.0117 45.8712 42.2617 44.7188 44.4844 47.7305H44.4799ZM59.8709 54.3282C65.0897 54.3282 69.3318 50.0899 69.3318 44.8673C69.3318 39.6485 65.0935 35.4064 59.8709 35.4064C54.6521 35.4064 50.41 39.6447 50.41 44.8673C50.41 50.0861 54.6483 54.3282 59.8709 54.3282ZM59.8709 38.4102C63.4412 38.4102 66.3318 41.3008 66.3318 44.8711C66.3318 48.4414 63.4412 51.332 59.8709 51.332C56.3006 51.332 53.41 48.4414 53.41 44.8711C53.41 41.3008 56.3006 38.4102 59.8709 38.4102ZM57.9686 48.1719V41.5821C57.9686 41.2305 58.3592 41.043 58.6405 41.2422L63.0702 44.543C63.289 44.7032 63.289 45.043 63.0702 45.2149L58.6405 48.504C58.3593 48.7149 57.9686 48.5157 57.9686 48.1759V48.1719ZM51.1014 11.3519C51.1014 10.5237 51.7733 9.85186 52.6014 9.85186H65.4294C66.2575 9.85186 66.9294 10.5237 66.9294 11.3519C66.9294 12.18 66.2575 12.8519 65.4294 12.8519H52.6014C51.7733 12.8519 51.1014 12.18 51.1014 11.3519ZM51.1014 18.3519C51.1014 17.5237 51.7733 16.8519 52.6014 16.8519H79.5424C80.3705 16.8519 81.0424 17.5237 81.0424 18.3519C81.0424 19.18 80.3705 19.8519 79.5424 19.8519H52.6014C51.7733 19.8519 51.1014 19.18 51.1014 18.3519Z" fill="black" />
</svg>
